<svg xmlns="http://www.w3.org/2000/svg" viewBox="0 0 512 512" width="512" height="512">
  <defs>
    <clipPath id="cp5"><rect width="512" height="512" rx="114" ry="114"/></clipPath>
  </defs>
  <rect width="512" height="512" rx="114" fill="#04080f"/>
  <rect width="512" height="512" rx="114" fill="#0d0820" opacity="0.95"/>
  <ellipse cx="64"  cy="288" rx="176" ry="176" fill="#8b1a1a" opacity="0.14" clip-path="url(#cp5)"/>
  <ellipse cx="474" cy="86"  rx="122" ry="122" fill="#c9a84c" opacity="0.10" clip-path="url(#cp5)"/>
  <!-- brilho roxo professor -->
  <ellipse cx="368" cy="154" rx="160" ry="160" fill="#5a3e8a" opacity="0.22" clip-path="url(#cp5)"/>
  <ellipse cx="256" cy="474" rx="192" ry="134" fill="#1a1030" opacity="0.7"  clip-path="url(#cp5)"/>

  <!-- estrelas -->
  <circle cx="86"  cy="58"  r="2.9"  fill="white" opacity="0.75"/>
  <circle cx="186" cy="38"  r="2.2"  fill="white" opacity="0.55"/>
  <circle cx="293" cy="27"  r="1.85" fill="white" opacity="0.45"/>
  <circle cx="362" cy="70"  r="3.45" fill="white" opacity="0.85"/>
  <circle cx="458" cy="42"  r="2.1"  fill="white" opacity="0.60"/>
  <circle cx="436" cy="138" r="1.85" fill="white" opacity="0.42"/>
  <circle cx="58"  cy="160" r="2.5"  fill="white" opacity="0.58"/>
  <circle cx="480" cy="234" r="1.6"  fill="white" opacity="0.40"/>
  <circle cx="37"  cy="352" r="1.85" fill="white" opacity="0.38"/>
  <circle cx="448" cy="420" r="2.25" fill="white" opacity="0.42"/>
  <circle cx="138" cy="458" r="1.6"  fill="white" opacity="0.35"/>
  <circle cx="234" cy="48"  r="1.6"  fill="white" opacity="0.48"/>
  <circle cx="44"  cy="82"  r="1.5"  fill="white" opacity="0.42"/>
  <circle cx="490" cy="160" r="1.4"  fill="white" opacity="0.38"/>
  <circle cx="116" cy="22"  r="1.7"  fill="white" opacity="0.50"/>
  <circle cx="472" cy="310" r="1.4"  fill="white" opacity="0.36"/>

  <!-- losango principal idêntico ao aluno 512 -->
  <polygon points="256,42 470,256 256,470 42,256"
    fill="none" stroke="#c9a84c" stroke-width="8.5" opacity="0.95" stroke-linejoin="round"/>
  <polygon points="256,122 356,256 256,390 156,256"
    fill="none" stroke="#c9a84c" stroke-width="3.2" opacity="0.28"/>
  <polygon points="256,18 494,256 256,494 18,256"
    fill="none" stroke="#c9a84c" stroke-width="1.4" opacity="0.12"/>

  <line x1="42"  y1="256" x2="470" y2="256" stroke="#c9a84c" stroke-width="1.8" opacity="0.16"/>
  <line x1="256" y1="42"  x2="256" y2="470" stroke="#c9a84c" stroke-width="1.8" opacity="0.16"/>

  <!-- ESCHATON idêntico ao aluno -->
  <text x="256" y="234"
    font-family="Georgia,'Times New Roman',serif"
    font-weight="900" font-size="52"
    fill="#c9a84c" text-anchor="middle" letter-spacing="10.5">ESCHAT</text>
  <text x="256" y="298"
    font-family="Georgia,'Times New Roman',serif"
    font-weight="900" font-size="52"
    fill="#c9a84c" text-anchor="middle" letter-spacing="10.5">ON</text>

  <!-- divisor roxo -->
  <line x1="112" y1="328" x2="400" y2="328" stroke="#9070d0" stroke-width="2.4" opacity="0.65"/>

  <!-- subtítulo PROFESSOR -->
  <text x="256" y="370"
    font-family="'Arial Narrow',Arial,Helvetica,sans-serif"
    font-weight="700" font-size="24"
    fill="#d0b8f8" text-anchor="middle" letter-spacing="8" opacity="0.88">PROFESSOR</text>

  <!-- ponto central roxo -->
  <circle cx="256" cy="256" r="8" fill="#9070d0" opacity="0.65"/>

  <!-- badge PROF canto superior direito -->
  <rect x="326" y="22" width="106" height="40" rx="9" fill="#5a3e8a" opacity="0.92"/>
  <text x="379" y="49"
    font-family="'Arial Narrow',Arial,Helvetica,sans-serif"
    font-weight="700" font-size="20"
    fill="#e8d5a0" text-anchor="middle" letter-spacing="4">PROF</text>
</svg>
